<svg fill="none" height="2000" viewBox="0 0 2000 2000" width="2000" xmlns="http://www.w3.org/2000/svg"><path d="m1392.95 1049.83s-5.53 10.2-60.78 13.81c-40.17 2.55-203.81 6.8-261.82 4.68-13.18-.64-14.45-5.74-15.09-6.38-2.34-3.82 118.37-25.08 118.37-25.08l204.02-21.25" fill="#4144ad"/><g fill="#83c3e5"><path d="m613.651 1729.67h-.85c-12.964-5.74-48.454-19.98-57.592-17.43-12.964 3.4-54.829 4.04-121.347-18.49-35.117-12.47-66.389-33.85-90.744-62.05-6.931-8.14-11.943-17.72-14.663-28.06-8.926-35.7-20.402-98.82 4.462-121.98 20.827-19.34 24.015-32.3 27.627-47.6 1.801-8.02 4.363-15.85 7.651-23.38 11.476-24.87 23.802-36.13 53.767-63.12l5.312-4.67c22.527-20.4 39.528-13.6 65.668-3.19 18.167 7.91 37.113 13.89 56.529 17.85 30.815 5.95 38.04 12.33 46.328 19.76 8.289 7.44 20.189 18.28 76.506 30.18 69.493 14.66 97.545 40.17 116.034 57.17 8.5 7.65 14.663 13.39 21.464 14.45 17.001 2.34 17.851 32.3 18.489 61.2.425 13.6.85 26.57 2.975 34.64 6.801 26.14-4.675 81.82-13.176 99.25-8.501 17.42-16.151 36.55-16.364 36.55-.064.29-.193.56-.378.79s-.42.41-.687.53c-.268.13-.56.19-.854.18-.295-.01-.583-.09-.843-.22-.502-.24-.893-.65-1.092-1.17-.198-.52-.188-1.09.029-1.6 0-.21 7.651-19.76 16.364-36.97 8.713-17.22 19.339-71.41 12.751-96.27-2.125-8.5-2.551-21.68-2.976-35.71-.637-25.92-1.487-55.25-14.663-57.16-8.288-1.07-14.876-7.02-23.802-15.3-18.276-16.79-45.691-41.87-114.333-56.32-57.167-12.11-68.431-22.1-78.419-31.03-9.988-8.92-14.451-13.17-43.991-18.91-19.77-3.92-39.073-9.9-57.591-17.85-26.14-10.63-40.591-16.37-61.205 2.12l-5.313 4.89c-29.327 26.56-41.653 37.61-52.704 61.84-3.182 7.24-5.604 14.79-7.225 22.53-3.826 15.09-7.226 29.54-29.115 49.73s-9.988 89.89-2.975 117.73c2.361 9.68 7.027 18.65 13.601 26.14 23.859 27.69 54.561 48.65 89.044 60.78 65.455 22.31 106.258 21.68 118.584 18.28s55.679 15.51 60.567 17.85c.501.23.893.65 1.091 1.16.199.52.188 1.09-.029 1.6-.163.37-.429.69-.769.92-.339.22-.736.35-1.143.36z"/><path d="m858.682 1785.77-92.87-4.46-26.139-72.68 1.912-.64c.85-.43 24.44-9.99 33.578-8.93 9.138 1.07 61.629 25.29 79.056 37.19 17.426 11.9 5.738 46.76 5.1 48.24zm-89.895-8.5 87.132 4.25c2.125-6.38 9.776-32.09-4.038-41.65-17.851-12.33-69.705-35.71-77.356-36.56-7.65-.85-21.889 4.89-29.539 7.87z"/><path d="m806.828 1745.82c-7.438 0-14.239-.22-17.427-1.49-7.438-2.55-29.539-2.13-33.577-.85-.211.34-.515.62-.878.8s-.768.25-1.17.2c-.401-.04-.782-.2-1.096-.45-.315-.26-.551-.59-.681-.98-.196-.43-.239-.92-.123-1.38.115-.46.383-.87.76-1.17 3.4-3.4 30.602-2.97 38.041-.21 7.438 2.76 36.977.85 48.028 0 .284-.06.579-.06.863 0 .284.07.548.2.774.39.225.18.406.41.527.68.122.26.181.55.174.84-.028.55-.229 1.07-.573 1.49s-.814.72-1.34.85c-2.763.21-18.701 1.28-32.302 1.28z"/><path d="m675.705 1800.22c-17.426 0-31.027-7.01-43.353-13.18-5.669-3.07-11.566-5.69-17.639-7.86-2.923-.96-5.36-3.02-6.8-5.74-7.651-15.09 5.525-54.61 17.001-89.25 2.55-7.65 4.888-14.88 6.801-21.25 8.713-28.48 16.788-29.97 28.902-28.91 3.522.54 7.104.54 10.626 0 16.363-3.18 43.14 6.17 50.366 28.91 7.225 22.73 22.314 45.47 22.527 45.69.266.49.348 1.06.231 1.6-.117.55-.425 1.03-.869 1.37-.236.16-.501.27-.78.32-.278.05-.565.05-.842-.01s-.54-.17-.772-.34c-.233-.16-.43-.37-.581-.61-.638-1.06-16.576-25.92-22.952-46.75-6.375-20.83-30.815-28.9-45.478-26.14-3.92.81-7.955.88-11.901.21-9.563-.85-15.939-1.27-24.44 25.72-1.912 6.59-4.25 13.81-6.8 21.46-10.838 32.3-24.014 72.47-17.214 85.86.421.88 1.014 1.68 1.743 2.34.73.65 1.582 1.16 2.507 1.48 6.317 2.16 12.432 4.86 18.277 8.08 14.663 7.44 31.24 15.94 54.404 11.48l24.014-4.47c23.589-4.25 43.991-8.07 53.554-12.75.249-.15.526-.24.813-.28.288-.04.58-.02.858.06.279.08.538.22.763.4.224.19.408.41.541.67.228.54.244 1.14.048 1.7-.197.55-.593 1-1.11 1.28-9.988 4.88-30.815 8.71-54.617 12.96l-24.014 4.46c-4.537 1-9.169 1.5-13.814 1.49z"/><path d="m711.833 1780.46c-.547-.05-1.061-.29-1.449-.68-.389-.39-.628-.9-.676-1.45 0-1.91-.425-17.85-14.876-42.5-9.351-15.94-3.613-28.48.85-37.62 2.338-5.1 4.25-9.56 3.4-12.96-3.227-9.92-7.651-19.41-13.176-28.27-.2-.2-.349-.46-.437-.73-.089-.28-.113-.57-.072-.86.041-.28.146-.56.308-.8s.376-.44.626-.58c.425-.36.975-.54 1.531-.5.557.04 1.076.29 1.444.71 1.488 2.34 10.414 17.64 13.814 29.75 1.488 5.1-1.063 10.42-3.613 15.94-4.463 9.35-9.35 19.77-1.062 33.79 15.088 25.51 15.513 42.72 15.513 44.63 0 .57-.224 1.11-.622 1.5-.399.4-.939.63-1.503.63z"/><path d="m812.778 1657.83h-.85c-1.275-.63-7.225-.63-12.963-.85-18.277-.63-45.904-1.48-58.017-10.2-16.576-12.32-96.057-44.2-111.359-43.14-15.301 1.07-49.728-1.06-90.319-28.47-32.09-21.68-44.628-23.59-69.917-27.63l-20.402-3.61c-34.215-6.38-94.357-23.38-111.783-64.61-.102-.26-.149-.55-.139-.83.009-.28.075-.56.194-.82s.288-.49.497-.68c.21-.19.456-.34.723-.43.508-.22 1.081-.23 1.597-.03.515.2.934.59 1.166 1.09 17.213 40.8 81.606 57.17 108.383 62.27l20.614 3.4c24.864 4.04 38.677 6.16 71.405 28.26 39.528 26.78 71.83 28.91 87.769 27.84h.85c19.339 0 97.97 32.52 113.271 43.78 11.051 8.08 38.89 8.93 55.467 9.56 9.138.22 13.176.43 14.876 1.28.25.11.475.27.657.48.182.2.318.44.398.71.081.26.104.54.069.81-.036.27-.129.53-.274.76-.193.34-.472.61-.809.8s-.719.28-1.104.26z"/><path d="m424.512 1485.7c-2.198 0-4.307-.88-5.861-2.43s-2.427-3.66-2.427-5.86c-.194-1.22-.122-2.46.21-3.64.333-1.18.919-2.28 1.717-3.22.798-.93 1.789-1.68 2.906-2.2 1.116-.51 2.331-.78 3.561-.78s2.445.27 3.561.78c1.117.52 2.108 1.27 2.906 2.2.798.94 1.384 2.04 1.717 3.22.332 1.18.404 2.42.21 3.64.001 1.11-.22 2.2-.65 3.22s-1.06 1.94-1.852 2.72c-.792.77-1.731 1.37-2.761 1.78-1.03.4-2.131.6-3.237.57zm0-12.54c-1.09.05-2.118.52-2.869 1.32-.752.79-1.17 1.84-1.169 2.93.051 1.05.493 2.05 1.24 2.8.746.74 1.743 1.19 2.798 1.24.622.14 1.269.14 1.891 0 .622-.15 1.205-.43 1.704-.82.499-.4.902-.91 1.179-1.48.277-.58.42-1.21.42-1.85s-.143-1.27-.42-1.84c-.277-.58-.68-1.08-1.179-1.48s-1.082-.68-1.704-.82-1.269-.14-1.891 0z"/><path d="m439.175 1509.71c-1.766-.05-3.442-.79-4.672-2.06-1.229-1.27-1.917-2.97-1.916-4.74-.175-.98-.133-1.98.122-2.94.256-.97.719-1.86 1.358-2.62.638-.76 1.436-1.38 2.337-1.8s1.883-.64 2.878-.64c.994 0 1.976.22 2.877.64s1.699 1.04 2.337 1.8c.639.76 1.102 1.65 1.358 2.62.255.96.297 1.96.122 2.94 0 .89-.176 1.78-.518 2.6-.342.83-.843 1.58-1.474 2.21-.632.63-1.381 1.13-2.206 1.47-.825.35-1.71.52-2.603.52zm0-9.35c-.325 0-.648.07-.946.2-.299.13-.567.32-.787.56s-.387.52-.491.83c-.105.31-.143.64-.113.96-.003.64.237 1.26.67 1.73.433.48 1.028.77 1.667.82.335 0 .667-.06.976-.19.31-.13.591-.32.828-.56.236-.23.424-.51.552-.82s.194-.64.194-.98c0-.68-.268-1.32-.746-1.8-.479-.48-1.127-.75-1.804-.75z"/><path d="m637.24 1729.67c-1.973 0-3.864-.79-5.259-2.18-1.395-1.4-2.179-3.29-2.179-5.26 0-1.98.784-3.87 2.179-5.26 1.395-1.4 3.286-2.18 5.259-2.18s3.865.78 5.26 2.18c1.394 1.39 2.178 3.28 2.178 5.26 0 1.97-.784 3.86-2.178 5.26-1.395 1.39-3.287 2.18-5.26 2.18zm0-10.63c-.845 0-1.656.34-2.254.93-.598.6-.934 1.41-.934 2.26 0 .84.336 1.65.934 2.25s1.409.94 2.254.94 1.656-.34 2.254-.94.934-1.41.934-2.25c0-.85-.336-1.66-.934-2.26-.598-.59-1.409-.93-2.254-.93z"/><path d="m478.278 1777.91c-39.953 0-78.631-3.83-83.731-5.32l-5.313-1.06c-8.288-1.7-18.701-3.82-21.251-12.11-2.551-8.29 3.825-21.25 19.976-38.68 32.515-34.85 70.13-25.71 103.283-17.64 13.388 3.19 26.139 6.38 37.402 6.16 11.264-.21 19.339 3.19 26.14 9.99 14.239 14.67 13.813 39.53 13.813 40.59v.64l-.425.64c-10.2 13.17-50.578 16.79-89.894 16.79zm-33.152-78c-18.489 0-36.978 5.53-53.979 23.8-17.001 18.28-21.252 27.63-19.127 34.22 2.126 6.59 10.839 7.86 18.064 9.35l5.526 1.28c10.2 2.76 148.548 13.38 168.737-9.57 0-4.04-.85-24.86-12.538-36.76-3.042-2.99-6.673-5.31-10.662-6.81s-8.248-2.15-12.503-1.91c-11.9.22-24.651-2.97-38.465-6.37-13.813-3.4-29.752-7.23-45.053-7.23z"/><path d="m590.274 1758.36c-9.776 0-20.827-.86-25.077-4.47-.235-.16-.431-.37-.573-.62s-.226-.53-.246-.81c-.021-.29.023-.58.128-.84.105-.27.269-.51.479-.7.338-.45.841-.75 1.399-.83s1.125.06 1.576.4c4.888 4.46 26.989 4.04 39.74 2.76.543.03 1.062.23 1.483.58.42.34.72.81.855 1.34.029.28.003.56-.077.83-.081.27-.214.52-.392.73-.178.22-.397.4-.645.53-.247.14-.519.22-.799.24-1.7.22-9.35.86-17.851.86z"/><path d="m308.478 1769.19c-58.867 0-139.623-5.73-163.637-12.96-36.765-10.84-34.428-66.52-33.153-96.48v-4.25c1.063-30.82 37.191-60.99 82.031-68.43 44.841-7.44 124.322-46.97 125.172-47.39.509-.22 1.081-.23 1.597-.03s.934.59 1.166 1.09c.145.23.239.49.274.76.036.28.012.55-.068.81-.081.27-.217.51-.399.71-.182.21-.406.37-.657.48-.85.43-79.906 39.74-126.447 47.61-46.541 7.86-77.568 39.31-78.418 64.6v4.25c-1.275 28.69-3.401 82.24 30.177 92.23 39.528 11.9 208.69 17.64 223.354 7.65.236-.15.501-.26.78-.32.278-.05.565-.05.842.01s.54.18.772.34c.233.16.43.37.581.61.153.22.258.47.309.73.05.26.045.53-.015.79s-.174.51-.334.72c-.161.21-.364.39-.597.52-6.163 4.25-31.453 5.95-63.33 5.95z"/><path d="m329.942 1718.83h-.85l-10.838-3.19c-39.741-11.69-160.025-47.18-190.202-92.66-.157-.23-.265-.5-.318-.78s-.05-.56.01-.84c.059-.28.173-.54.336-.77.162-.23.37-.43.61-.58.49-.27 1.059-.35 1.605-.23.546.11 1.032.42 1.37.86 29.115 44 148.548 79.27 187.651 90.75 6.376 1.91 10.201 2.97 11.476 3.61.502.23.893.65 1.092 1.17.198.51.188 1.09-.029 1.59-.172.36-.448.65-.79.84s-.734.27-1.123.23z"/><path d="m175.231 1595.99h-.638c-.278-.04-.543-.15-.776-.31s-.427-.37-.569-.61c-.142-.25-.229-.52-.254-.8-.024-.28.014-.56.112-.83.85-2.97 21.676-74.59 45.69-96.48 19.977-18.06 49.517-5.74 62.055-.42 1.617.84 3.33 1.48 5.1 1.91.516.01 1.016.18 1.433.48.418.31.733.73.905 1.22.062.28.066.57.014.85-.053.28-.162.55-.321.79-.159.23-.364.44-.603.59-.24.16-.508.27-.79.32-1.275.42-2.763-.21-7.438-2.34-11.901-4.89-39.528-16.58-57.379-.21-23.165 21.04-44.416 93.72-44.629 94.57-.163.37-.43.69-.769.92-.339.22-.736.35-1.143.35z"/><path d="m255.774 1572.19h-1.275c-23.589-16.58-26.564-48.24-26.777-49.73.028-.54.229-1.06.573-1.48s.813-.72 1.34-.86c.296-.03.595.01.878.1s.543.25.764.45c.22.2.396.44.516.71.12.28.181.57.179.87 0 .21 2.976 31.03 25.077 46.33.451.34.749.84.829 1.4s-.066 1.12-.404 1.57c-.208.24-.473.43-.769.54-.297.11-.617.14-.931.1z"/><path d="m310.816 1548.18c-.333.02-.665-.05-.963-.2-.299-.15-.553-.38-.737-.65-1.913-2.55-43.141-64.18-34.428-99.89 6.376-26.35 23.589-59.08 35.065-80.75 3.825-7.65 6.801-13.39 8.288-16.79 2.864-5.51 6.282-10.7 10.201-15.51 5.95-8.08 12.964-17.22 11.901-22.32-.111-.62-.359-1.21-.726-1.73-.368-.51-.846-.94-1.399-1.24-32.062-20.79-66.172-38.24-101.795-52.07-22.952-8.93-31.453-12.11-28.902-29.33 4.462-29.75 30.602-76.5 38.465-86.7.637-.64 1.913-2.55 3.825-1.49 1.913 1.06 1.913 2.55-4.463 20.4-6.375 17.85-15.088 42.5-13.176 50.37 1.913 7.86 43.779 30.39 77.356 48.24 20.827 11.05 40.378 21.46 53.129 29.54 2.522 1.44 4.713 3.4 6.433 5.74 1.721 2.34 2.932 5.02 3.555 7.86 2.976 15.09-11.263 35.06-27.839 58.02-16.576 22.95-30.39 42.71-34.215 62.9-9.776 50.15 4.888 69.92 15.088 73.74.325.04.636.15.912.32.275.18.506.41.675.69.17.28.273.59.301.92.029.32-.018.65-.136.96-.118.3-.305.57-.546.79-.24.22-.528.39-.841.48s-.643.11-.965.05c-.321-.06-.624-.19-.887-.38-11.476-4.25-28.265-25.5-17.852-78.42 4.038-21.04 19.764-43.14 35.066-64.39 15.301-21.25 29.539-41.44 26.989-54.83-.472-2.26-1.417-4.39-2.772-6.26s-3.09-3.43-5.091-4.58c-12.751-8.08-32.302-18.49-52.917-29.54-46.54-24.65-77.355-41.65-79.48-51-2.126-9.35 5.1-29.54 13.176-52.71.85-1.91 1.487-4.04 2.125-5.95-10.414 17.64-28.265 52.71-31.665 75.87-1.913 13.39 2.975 15.73 26.139 24.86 19.764 7.66 53.129 20.83 102.645 52.28 1.052.61 1.959 1.43 2.656 2.42.698 1 1.17 2.13 1.382 3.32 1.275 7.01-5.95 16.58-12.751 25.72-3.665 4.56-6.868 9.47-9.563 14.66-1.488 3.4-4.675 9.35-8.713 17-10.626 20.19-28.265 53.98-34.64 79.69-8.288 34.01 33.365 96.06 33.79 96.7.29.47.407 1.02.329 1.56-.078.55-.345 1.05-.754 1.41z"/><path d="m499.742 1307.61h-.637c-.56-.07-1.085-.32-1.503-.7s-.709-.88-.835-1.43c-.425-2.76-2.763-11.9-7.65-14.66-1.033-.48-2.157-.72-3.294-.72-1.138 0-2.262.24-3.294.72-10.201 4.04-27.628 4.04-39.953-3.61-4.141-2.66-7.591-6.26-10.067-10.51-2.475-4.24-3.905-9.02-4.172-13.93v-.43c-39.103-5.95-56.954 34.22-57.804 35.92-.075.3-.215.58-.41.82-.196.24-.441.44-.72.57-.279.14-.584.21-.894.22-.31 0-.618-.06-.902-.18-.283-.13-.536-.32-.739-.55-.204-.23-.354-.51-.44-.81s-.105-.61-.057-.92c.048-.3.163-.59.336-.85.213-.43 19.977-45.06 62.693-38.47 1.275-4.25 5.312-14.24 15.301-19.34 9.988-5.1 19.126-4.25 31.452.85 19.339 8.08 31.027 18.49 34.853 31.24 3.825 12.75 0 22.96-8.926 35.71-.61.64-1.45 1.02-2.338 1.06zm-13.813-21.68c1.782-.03 3.541.41 5.1 1.28 5.101 2.76 7.863 9.35 9.138 14.24 7.013-10.63 9.139-20.41 6.588-29.33-2.55-8.93-14.026-21.04-32.302-28.48-11.051-4.67-20.402-5.1-27.84-1.06s-13.601 18.28-13.601 18.49l-.425 1.27c.85 9.57 4.888 16.58 12.326 21.25 11.689 7.44 28.265 6.38 36.128 3.19 1.566-.57 3.221-.86 4.888-.85z"/><path d="m485.716 1274.24h-1.062c-9.138-4.46-35.065-14.45-43.991-9.56-.507.28-1.106.35-1.664.19s-1.029-.53-1.311-1.04-.351-1.1-.191-1.66c.159-.56.533-1.03 1.041-1.31 12.538-6.81 44.416 7.86 48.028 9.35.518.27.914.73 1.11 1.28.197.55.18 1.15-.047 1.69-.22.31-.506.56-.837.75-.33.18-.698.29-1.076.31z"/><path d="m209.446 1223.03h-.85c-.425-.21-43.566-17.85-65.668-.43-.19.27-.44.49-.73.65s-.613.24-.942.25c-.33.01-.657-.05-.956-.19s-.562-.35-.768-.6c-.206-.26-.349-.56-.419-.89-.069-.32-.062-.65.02-.97s.237-.62.453-.86c.216-.25.487-.45.792-.58 24.014-19.12 68.005-1.06 69.705-.42.42.19.764.52.982.93.217.41.296.87.224 1.33s-.291.88-.624 1.2c-.332.32-.761.52-1.219.58z"/><path d="m151.004 1240.88c-7.988-.03-15.829-2.16-22.739-6.16l-19.127-10.84c-.944-.58-1.64-1.48-1.954-2.54s-.224-2.2.254-3.2c1.7-3.61 6.376-11.05 18.914-21.04 6.801-5.31 15.939-7.22 26.777-5.52 15.939 2.76 31.24 12.96 36.128 20.61.157.24.265.5.318.78s.049.56-.01.84-.174.54-.336.77c-.163.24-.37.43-.61.58.31.34.53.75.642 1.2.111.44.11.91-.004 1.35-3.093 6.02-7.583 11.2-13.092 15.12-5.51 3.92-11.879 6.46-18.573 7.41zm-5.526-45.69c-5.872-.19-11.637 1.61-16.363 5.1-12.326 9.99-16.577 17-17.852 19.55l19.127 11.05c7.919 4.73 17.219 6.6 26.352 5.31 6.002-.88 11.711-3.17 16.66-6.67 4.95-3.51 8.999-8.14 11.817-13.52.239-.45.61-.82 1.062-1.06-.112 0-.22-.04-.3-.12s-.125-.19-.125-.3c-4.462-7.02-18.913-16.15-33.365-18.7-2.311-.45-4.66-.66-7.013-.64z"/><path d="m204.558 1158.64c-9.797.25-19.365-2.99-26.99-9.14-10.2-8.08-13.813-19.55-12.326-24.44.103-.61.379-1.17.793-1.62.415-.45.951-.78 1.545-.93 1.093-.43 2.307-.43 3.4 0 4.038 2.12 19.127 8.29 39.953 1.06 14.451-5.31 24.227.43 29.965 6.16 2.665 2.81 4.951 5.95 6.801 9.35 4.037-9.56 2.975-24.22-8.289-38.67-7.013-9.14-16.363-14.24-24.014-18.49l-2.125-1.28c-17.001-9.56-28.477-11.47-51.216-8.92-.284.06-.58.06-.863-.01-.284-.06-.549-.19-.774-.38-.226-.18-.406-.42-.527-.68-.122-.27-.181-.55-.174-.85-.064-.53.076-1.07.391-1.5.316-.43.783-.73 1.309-.83 23.589-2.55 36.34-.43 53.979 9.56l2.125 1.06c7.438 4.25 17.852 9.99 25.29 19.77 14.026 18.06 13.388 36.76 6.375 47.17l-2.337 3.62-.638-2.13c-17.214 8.93-30.815 12.12-41.653 12.12zm-35.278-32.09c-.637 2.76 1.913 12.32 10.839 19.76 8.925 7.44 29.752 14.24 64.392-3.83-2.763-5.95-12.326-22.1-32.09-14.87-19.764 7.22-37.19 1.91-43.141-1.06z"/><path d="m215.821 1107.21c-17.851 0-43.778-4.47-75.23-21.04-20.189-10.84-31.453-21.25-33.153-31.24-.42-2.53-.235-5.11.541-7.55s2.12-4.66 3.922-6.48c.669-.73 1.494-1.3 2.414-1.67.919-.37 1.91-.52 2.899-.45 1.997.21 3.829 1.2 5.1 2.76 1.7 2.76 9.563 8.29 43.991 3.82 34.428-4.46 58.867-6.58 71.618 7.23 8.288 8.93 9.988 24.01 5.313 46.97-.425 1.48-1.7 2.76-4.251 4.03-2.55 1.28-11.475 3.62-23.164 3.62zm-99.032-64.18c-.333-.02-.665.05-.963.2-.299.14-.553.37-.737.65-1.375 1.32-2.403 2.96-2.996 4.78s-.732 3.75-.405 5.63c.85 5.74 7.226 15.51 31.028 28.05 53.341 28.27 93.507 20.62 96.269 16.15 4.463-21.04 2.976-35.27-4.25-43.14-11.476-12.11-37.403-9.77-67.792-5.95-27.202 3.61-43.354 1.7-48.242-5.31-.157-.32-.399-.59-.699-.77-.3-.19-.647-.29-1.001-.29z"/><path d="m253.011 1127.61c-.472 0-.929-.17-1.282-.49-.353-.31-.578-.74-.63-1.21-.131-.54-.049-1.1.228-1.58.278-.47.729-.82 1.259-.97 8.158-1.89 16.125-4.52 23.802-7.87 2.81-1.47 5.448-3.25 7.863-5.31 10.201-7.65 24.015-18.06 46.329-11.9.278.05.543.15.776.31s.427.37.569.61c.142.25.229.52.253.8.025.28-.013.57-.111.83-.045.28-.151.54-.311.78-.16.23-.369.42-.613.57-.244.14-.516.23-.797.25s-.564-.01-.829-.11c-20.401-5.53-33.365 4.25-42.716 11.26-2.681 2.13-5.523 4.05-8.5 5.74-7.983 3.42-16.227 6.19-24.652 8.29z"/><path d="m271.075 1122.29c-.279.01-.557-.04-.814-.15s-.487-.27-.673-.48c-.425-.43-9.564-9.78-7.438-20.62 2.125-10.83 8.713-14.45 20.826-19.34 35.49-14.02 59.292 5.74 76.506 20.41l1.7 1.27c.419.37.676.89.716 1.45.04.55-.141 1.1-.503 1.53-.339.45-.842.75-1.4.83-.558.07-1.125-.07-1.576-.41l-1.487-1.49c-17.639-14.66-39.316-32.72-72.256-19.55-10.838 4.25-17.001 9.78-18.276 16.15-1.275 6.38 5.95 16.58 6.163 16.58.271.32.45.71.519 1.12.069.42.025.84-.128 1.23-.152.4-.407.74-.737 1-.331.26-.725.42-1.142.47z"/><path d="m305.503 1128.67c-11.97-.25-23.844-2.19-35.278-5.74-.286-.07-.554-.2-.787-.38s-.426-.41-.566-.67-.224-.55-.247-.84c-.023-.3.015-.59.113-.87.094-.27.242-.51.433-.72s.422-.38.679-.5c.258-.12.536-.18.82-.19.283-.01.565.03.83.13.425.22 40.378 12.76 57.592-.42s28.902-15.51 29.327-15.51c.28-.03.562-.01.831.07s.52.22.737.39c.217.18.397.4.53.65.132.25.213.52.24.8.065.28.064.58-.003.86-.066.29-.197.55-.381.78-.185.22-.419.4-.683.52-.265.12-.554.18-.846.18 0 0-9.563 1.06-26.989 14.45-7.013 5.31-16.576 7.01-26.352 7.01z"/></g><path d="m573.91 1475.71 189.352-186.59c3.907-3.89 9.172-6.11 14.684-6.18 5.511-.08 10.838 1.98 14.856 5.75l11.901 10.84c2.069 1.93 3.739 4.24 4.913 6.81s1.829 5.34 1.927 8.17c.099 2.82-.36 5.64-1.352 8.28-.992 2.65-2.496 5.07-4.426 7.13l-135.585 145.79z" fill="#940113"/><path d="m1049.65 1476.98-189.355-186.8c-3.969-3.85-9.261-6.04-14.792-6.12s-10.884 1.96-14.961 5.7l-11.688 11.05c-2.07 1.92-3.739 4.23-4.913 6.8s-1.829 5.35-1.928 8.17c-.099 2.83.361 5.64 1.353 8.29.991 2.64 2.495 5.07 4.425 7.13l135.373 145.78z" fill="#940113"/><path d="m1443.53 577.404s107.32 221.867 134.94-42.928c3.62-35.915 11.69-62.267 15.3-114.121l69.71 38.891s-19.98 603.124-303.47 183.826c17.78-3.687 34.54-11.231 49.09-22.102 14.66-11.476 31.66-23.164 34.43-43.566z" fill="#f4bb8e"/><path d="m1444.38 593.131s-48.25 37.827-84.37 49.728l10.41 15.301s60.14-22.951 73.96-65.029z" fill="#e49d65"/><path d="m1325.37 226.541c4.93.629 9.5 2.937 12.93 6.536 3.44 3.599 5.53 8.27 5.93 13.229s-.92 9.905-3.74 14.006c-2.81 4.102-6.95 7.11-11.72 8.519 4.03 5.4 6.21 11.961 6.21 18.702s-2.18 13.301-6.21 18.701c23.59 34.003 10.83 87.132-25.29 106.683-5.53 2.975-11.69 5.313-17.85 4.676-6.17-.638-59.93 12.113-61 5.95-1.06-6.163 51.86-30.177 56.32-35.49 32.09-38.465 39.32-95.632 18.06-141.111-2.55-5.1-5.31-10.625-4.67-16.363s7.22-11.051 12.11-8.288" fill="#46003d"/><path d="m1189.57 435.019-81.82-17.426c-8.31-1.627-16.07-5.359-22.53-10.839-6.37-5.525-11.9-12.326-12.32-19.126-.19-2.607-1.3-5.062-3.13-6.93s-4.26-3.026-6.86-3.271c-17-1.488-31.67-9.988-39.32-25.502-7.65-15.513-3.4-38.89 10.42-51.429 1.74-1.609 2.94-3.721 3.44-6.042.49-2.322.26-4.74-.68-6.921-2.55-5.449-3.89-11.387-3.93-17.403-.03-6.017 1.23-11.97 3.72-17.45 3.27-6.779 8.36-12.516 14.7-16.569s13.69-6.263 21.21-6.382c19.34.212 36.13 15.301 44.63 32.94 8.5 17.638 10.63 37.19 13.81 56.529 3.19 19.339 7.87 38.89 20.41 53.979 7.43 8.925 17.42 15.726 25.5 24.227 8.07 8.5 13.81 20.826 10.41 32.089" fill="#46003d"/><path d="m1241 412.917s-4.68 25.715 5.52 30.815 34.64 9.351 34.64 9.351-30.81 30.177-56.31 33.577c-19.77 2.763-39.11 2.125-62.7-12.113-23.59-14.239-28.26-25.502-28.26-25.502s49.3-.85 49.94-9.988-.21-21.464-.21-21.464z" fill="#f4bb8e"/><path d="m1193.18 419.293h37.4c40.38 0 93.09-25.29 93.09-65.668.02-37.675-7.05-75.019-20.83-110.083-19.55-49.304-42.93-97.97-72.26-97.97h-37.4c-19.39 0-37.98 7.702-51.69 21.412s-21.41 32.305-21.41 51.694l-18.71 144.085c0 40.378 51.43 56.53 91.81 56.53z" fill="#f4bb8e"/><path d="m1201.47 963.121h-107.53v733.799h107.53z" fill="#f4bb8e"/><path d="m1325.37 963.121h-107.54v724.419h107.54z" fill="#f4bb8e"/><path d="m1201.47 1529.26h-107.53v160.28h107.53z" fill="#7f4bbc"/><path d="m1325.37 1529.26h-107.54v160.28h107.54z" fill="#571f9a"/><path d="m1114.34 300.071s-12.97-41.015-35.07-16.576c-15.3 17.001 4.68 36.978 6.17 45.478 6.8 36.553 28.26 20.614 28.26 20.614z" fill="#f4bb8e"/><path d="m1321.12 225.478c-24.23 2.763-46.54-5.525-69.5-17.851-2.97-1.578-6.37-2.161-9.7-1.664-3.32.497-6.4 2.049-8.79 4.427-23.16 23.376-51.21 31.027-85.43 38.678-15.09 3.4-25.71 1.275-40.59 4.675-14.87 3.4-38.89 12.751-53.34 4.675-5.79-3.194-10.53-8.009-13.62-13.853-3.1-5.845-4.42-12.465-3.82-19.052.61-6.586 3.13-12.852 7.25-18.029 4.11-5.178 9.65-9.042 15.93-11.12.72-.296 1.36-.776 1.84-1.394.48-.617.79-1.35.9-2.125.1-.775.01-1.565-.29-2.29-.29-.725-.77-1.36-1.39-1.842-24.23-16.576-33.15-54.191-15.72-78.631 17.42-24.4391 53.76-27.8394 77.35-12.1132 2.95 2.0295 6.56 2.8722 10.1 2.3602 3.55-.5121 6.77-2.3412 9.03-5.1229 16.15-20.189 43.78-31.0273 69.28-25.7145 25.5 5.3129 51 31.4524 54.61 59.9294.08.811.32 1.598.71 2.316.38.718.91 1.352 1.54 1.866s1.36.897 2.14 1.128c.79.23 1.6.304 2.41.216 11.08-1.515 22.36.382 32.34 5.437 9.97 5.056 18.17 13.029 23.5 22.86s7.54 21.052 6.34 32.17c-1.21 11.117-5.77 21.604-13.08 30.064z" fill="#46003d"/><path d="m1180.64 383.377c.22-9.35 31.03-20.189 47.18-13.813 19.55 7.65 30.39 14.026 24.23 19.976-6.16 5.951-24.23-10.2-39.53-10.2s-32.09 11.05-31.88 4.037z" fill="#fff"/><g opacity=".4"><path d="m1129.64 1692.9c-.85 0-1.66-.34-2.25-.93-.6-.6-.94-1.41-.94-2.26v-154.28c0-.85.34-1.66.94-2.26.59-.6 1.4-.93 2.25-.93.84 0 1.66.33 2.25.93.6.6.94 1.41.94 2.26v154.28c0 .85-.34 1.66-.94 2.26-.59.59-1.41.93-2.25.93z" fill="#fff" opacity=".4"/></g><g opacity=".4"><path d="m1156.84 1692.9c-.84 0-1.65-.34-2.25-.93-.6-.6-.94-1.41-.94-2.26v-154.28c0-.85.34-1.66.94-2.26s1.41-.93 2.25-.93c.85 0 1.66.33 2.26.93.59.6.93 1.41.93 2.26v154.28c0 .85-.34 1.66-.93 2.26-.6.59-1.41.93-2.26.93z" fill="#fff" opacity=".4"/></g><g opacity=".4"><path d="m1184.04 1692.9c-.84 0-1.65-.34-2.25-.93-.6-.6-.93-1.41-.93-2.26v-154.28c0-.85.33-1.66.93-2.26s1.41-.93 2.25-.93c.85 0 1.66.33 2.26.93s.93 1.41.93 2.26v154.28c0 .85-.33 1.66-.93 2.26-.6.59-1.41.93-2.26.93z" fill="#fff" opacity=".4"/></g><g opacity=".4"><path d="m1252.26 1692.9c-.84 0-1.66-.34-2.25-.93-.6-.6-.94-1.41-.94-2.26v-154.28c0-.85.34-1.66.94-2.26.59-.6 1.41-.93 2.25-.93.85 0 1.66.33 2.25.93.6.6.94 1.41.94 2.26v154.28c0 .85-.34 1.66-.94 2.26-.59.59-1.4.93-2.25.93z" fill="#fff" opacity=".4"/></g><g opacity=".4"><path d="m1226.97 1692.9c-.84 0-1.65-.34-2.25-.93-.6-.6-.94-1.41-.94-2.26v-154.28c0-.85.34-1.66.94-2.26s1.41-.93 2.25-.93c.85 0 1.66.33 2.26.93.59.6.93 1.41.93 2.26v154.28c0 .85-.34 1.66-.93 2.26-.6.59-1.41.93-2.26.93z" fill="#fff" opacity=".4"/></g><g opacity=".4"><path d="m1282.44 1692.48c-.85 0-1.66-.34-2.26-.94-.59-.6-.93-1.41-.93-2.25v-154.08c0-.84.34-1.65.93-2.25.6-.6 1.41-.93 2.26-.93.84 0 1.65.33 2.25.93s.94 1.41.94 2.25v154.08c0 .84-.34 1.65-.94 2.25s-1.41.94-2.25.94z" fill="#fff" opacity=".4"/></g><g opacity=".4"><path d="m1307.73 1692.9c-.85 0-1.66-.34-2.26-.93-.59-.6-.93-1.41-.93-2.26v-154.28c0-.85.34-1.66.93-2.26.6-.6 1.41-.93 2.26-.93.84 0 1.65.33 2.25.93s.94 1.41.94 2.26v154.28c0 .85-.34 1.66-.94 2.26-.6.59-1.41.93-2.25.93z" fill="#fff" opacity=".4"/></g><path d="m1464.14 1775.57c-32.52-32.09-92.23-84.16-142.81-90.75l-167.04 2.34s-24.01 49.52-30.6 93.51c-2.55 17.43 8.92 33.36 23.8 32.73l309-11.48c11.69-.42 16.57-17.64 7.65-26.35z" fill="#9c410e"/><path d="m1372.33 1783.86c-33.36-34.22-94.78-89.9-146.85-96.91l-126.23.42c-4.06.07-8.06.98-11.75 2.66s-7 4.1-9.71 7.12c-15.52 17.43-46.33 56.1-51.22 90.96-2.76 18.49-1.49 31.24 13.81 30.6l324.3-6.59c11.9-.42 17-18.91 7.65-28.26z" fill="#c9661c"/><path d="m1263.74 1768.34h-.85c-.52-.27-.92-.73-1.11-1.28-.2-.55-.18-1.15.04-1.69 8.29-19.13 18.92-30.6 31.67-34.43 4.22-1.22 8.65-1.54 13-.96 4.35.59 8.54 2.07 12.29 4.36.24.15.45.35.61.58s.27.5.33.77c.06.28.07.57.01.85-.05.27-.16.54-.31.78-.37.41-.87.67-1.41.75-.55.08-1.1-.04-1.57-.33-6.69-3.66-14.54-4.58-21.89-2.55-11.26 3.19-21.04 14.03-28.9 31.88-.14.39-.4.73-.74.96-.35.23-.76.34-1.17.31z" fill="#ff9800"/><path d="m785.364 493.886c-2.976-1.913 4.25-37.403-35.916-40.166-44.628-3.188-97.969-22.101-132.397-58.442-34.428-36.34-74.806-62.054-57.804-78.205 12.113-11.476 31.24 2.55 41.44 11.688 1.37 1.258 2.979 2.226 4.732 2.847s3.613.881 5.469.766c11.476-.425 26.352 2.125 46.116 18.276 7.474 6.262 15.858 11.35 24.864 15.089 8.288 3.4 17.852 6.163 24.865 4.675 0 0-1.913-30.39 19.126-24.652s43.778 19.977 78.206 18.914c34.428-1.062 51.004 11.476 47.391 46.754 0 0 7.863 79.055 4.463 71.192 0 0-70.13 11.689-70.555 11.264z" fill="#f4bb8e"/><path d="m675.705 411.43h-.85c-8.075-4.251-77.568-42.079-75.018-66.305v-1.275c.213-2.338.425-6.163 3.826-8.501 3.4-2.338 9.775-3.188 19.551-1.063s23.164 9.989 36.765 18.277 28.052 17.213 38.041 18.489h.212c.213 0 19.127 4.462 56.317-.425 37.19-4.888 57.379 22.951 57.379 23.164.157.236.265.501.318.78.053.278.05.564-.01.842-.059.277-.173.54-.336.772-.162.232-.37.43-.61.581-.49.266-1.059.348-1.605.232-.546-.117-1.032-.426-1.37-.87-.637-1.062-16.788-26.139-53.129-21.251-36.34 4.888-55.891.637-57.804.212-10.838-1.487-25.502-10.413-39.74-19.126-14.239-8.713-25.715-15.726-35.278-17.851-9.563-2.126-14.451-.85-16.151.425-.725.718-1.288 1.582-1.655 2.535-.366.952-.526 1.971-.47 2.99v1.275c-1.913 18.064 51.853 51.004 72.68 62.055.251.11.475.274.657.479.182.204.318.446.399.708.08.262.104.538.068.81-.035.272-.129.533-.274.765-.163.374-.43.693-.769.919s-.736.35-1.144.357z" fill="#46003d" opacity=".3"/><path d="m1344.71 620.97c4.46 3.826 9.77 10.839 15.3 22.102 5.52 11.263 76.71-32.303 87.98-53.767.53-1.093.8-2.292.8-3.506s-.27-2.413-.8-3.507c-4.89-9.138-20.62-38.678-41.02-74.38-17.42-30.39-36.34-58.655-59.93-68.643-13.6-5.525-36.97-12.538-49.3-4.675l-2.34 1.275c-8.4 4.361-15.84 10.359-21.89 17.639-56.74 67.58-126.66 4.25-126.66 4.25s-31.45-33.577-72.68-4.888c-16.36 11.476-58.65 100.52-72.04 129.422-.75 1.915-1.08 3.967-.97 6.02.11 2.052.66 4.057 1.61 5.881 16.57 27.415 57.8 56.742 78.2 60.78 1.11.236 2.26.185 3.33-.15 1.08-.335 2.06-.942 2.84-1.763.82-1.209 1.82-2.284 2.97-3.188l19.98-16.151c.62-.484 1.35-.818 2.12-.973.78-.156 1.58-.13 2.34.076s1.47.586 2.06 1.111c.59.524 1.05 1.179 1.34 1.911l5.53 14.026 11.47 44.416c3.75 14.421 2 29.718-4.89 42.928-24.44 46.754-80.54 170.438-70.34 296.244.22 3.31-.21 6.64-1.27 9.78-2.13 7.01-3.83 11.69-4.04 15.73-.64 9.98 29.75 7.43 50.79 3.4 57.38-11.48 139.2-17.86 193.18-20.19 3.82-.22 51.85 1.06 77.35 4.25 12.12 1.27 23.38 19.55 14.67-22.32-2.55-11.69-4.68-22.95-6.8-33.787-4.04-56.742-15.52-154.499-47.61-243.756-8.89-24.305-10.44-50.688-4.46-75.868z" fill="#5980d5"/><path d="m1263.5 288c4.69 0 8.5-7.163 8.5-16s-3.81-16-8.5-16-8.5 7.163-8.5 16 3.81 16 8.5 16z" fill="#46003d" opacity=".6"/><path d="m1176.5 295c4.69 0 8.5-7.163 8.5-16s-3.81-16-8.5-16-8.5 7.163-8.5 16 3.81 16 8.5 16z" fill="#46003d" opacity=".6"/><path d="m1269.69 245.03c-2.44.02-4.87-.266-7.23-.85-16.15-3.613-22.74-13.814-22.95-14.239-.25-.458-.33-.993-.21-1.503s.42-.958.85-1.26c.23-.157.5-.265.78-.318s.56-.049.84.01.54.174.77.336c.23.163.43.37.58.61 0 0 5.95 9.138 20.19 12.326s26.14-5.951 26.14-5.951c.45-.338 1.02-.483 1.58-.403.55.079 1.06.377 1.4.828.33.451.48 1.018.4 1.576s-.38 1.061-.83 1.4c-6.54 4.627-14.3 7.215-22.31 7.438z" fill="#46003d" opacity=".6"/><path d="m1164.07 254.593c-6.79-.222-13.27-2.86-18.28-7.438-.3-.144-.56-.357-.76-.621-.21-.264-.35-.572-.41-.899s-.04-.664.05-.984.26-.614.48-.858c.23-.244.51-.431.82-.546.32-.116.65-.157.98-.119.33.037.65.152.93.335s.51.428.67.717c.43.425 11.05 10.2 23.8 4.25 12.76-5.951 15.09-12.964 15.09-13.176.19-.504.55-.926 1.01-1.197.47-.271 1.01-.374 1.54-.291.28.046.55.152.78.312.23.159.43.369.57.613.14.243.23.515.25.797.03.281-.01.564-.11.829 0 .425-2.34 8.925-17.42 15.938-3.11 1.53-6.53 2.33-9.99 2.338z" fill="#46003d" opacity=".6"/><path d="m1221.87 353.2c-3.05.201-6.1-.308-8.92-1.487-.52-.273-.92-.73-1.11-1.281-.2-.551-.18-1.156.04-1.695.11-.25.28-.474.48-.657.21-.182.45-.318.71-.398.26-.081.54-.104.81-.069.27.036.53.129.77.274 4.88 2.338 15.08.638 18.48-.212s10.21-5.101 12.12-9.351c1.56-4.339 1.49-9.101-.21-13.388-.43-1.224-1.1-2.347-1.97-3.298-.88-.951-1.95-1.71-3.14-2.228-5.52-2.125-12.75 1.063-12.75 1.063-.5.217-1.08.227-1.59.029-.52-.199-.94-.59-1.17-1.092-.14-.246-.22-.52-.24-.802-.03-.283.02-.566.12-.831.1-.264.26-.503.46-.698.21-.195.45-.343.72-.431.22-.213 8.93-4.038 16.15-1.063 1.68.699 3.18 1.741 4.43 3.059 1.24 1.318 2.2 2.882 2.8 4.592 2.28 5.35 2.35 11.382.21 16.788-2.33 5.526-7.43 9.351-14.66 11.689-4.11.954-8.32 1.452-12.54 1.487z" fill="#46003d" opacity=".6"/><path d="m1098.4 325.361c-1.8-.148-3.48-.985-4.68-2.338-1.42-1.366-2.51-3.037-3.18-4.888-9.14-22.527-8.5-26.989-.85-31.027 1.64-.827 3.52-1.053 5.31-.638 5.1 1.7 8.71 8.501 9.14 9.351.23.483.27 1.036.11 1.548-.15.512-.5.946-.96 1.215-.52.245-1.1.294-1.65.137-.55-.156-1.02-.507-1.33-.987-.85-1.7-3.61-6.163-6.59-7.226-.71-.132-1.45-.059-2.12.213-4.04 2.337-6.16 3.612 2.76 25.927.6 1.245 1.39 2.392 2.34 3.4.44.528 1.03.9 1.7 1.062.56 0 1.1.224 1.5.623.4.398.62.939.62 1.503.04.287.01.578-.09.852-.09.273-.25.521-.45.726-.21.204-.46.36-.73.455-.27.094-.56.126-.85.092z" fill="#46003d" opacity=".6"/><path d="m1277.98 1719.68 2.55-4.68c.85-1.7 22.73-42.29 40.8-44.41 1.98-.21 3.98.07 5.83.81 1.86.74 3.5 1.92 4.79 3.44 1.41 1.34 2.42 3.03 2.95 4.9.52 1.87.53 3.85.03 5.72-4.46 16.58-46.97 31.03-51.85 32.73zm44.84-44.84h-1.07c-11.47 1.48-26.99 24.22-34.85 37.4 14.88-5.53 41.02-17 43.99-27.84.21-1.19.12-2.41-.25-3.56-.37-1.14-1.01-2.18-1.87-3.03-.68-.93-1.58-1.69-2.62-2.21-1.03-.52-2.18-.78-3.33-.76z" fill="#ff9800"/><path d="m1242.49 1724.14c-8.72 0-16.58-1.49-20.83-5.31-1.44-1.33-2.51-3-3.11-4.87-.6-1.86-.7-3.84-.29-5.76.26-2 1.02-3.9 2.21-5.54 1.19-1.63 2.77-2.94 4.59-3.81 16.15-7.86 56.53 14.45 58.23 15.3l4.67 2.55-5.1 1.49c-3.18.85-23.37 5.95-40.37 5.95zm-8.72-22.74c-2.33-.05-4.64.38-6.8 1.28-1.22.54-2.27 1.4-3.05 2.48s-1.27 2.35-1.41 3.68c-.27 1.2-.24 2.45.1 3.64.33 1.19.95 2.27 1.81 3.16 8.29 7.44 36.55 3.19 51.86-.21-11.06-5.74-30.18-14.03-42.51-14.03z" fill="#ff9800"/><path d="m1343.43 1751.13h-.85c-.52-.27-.91-.73-1.11-1.28s-.18-1.16.05-1.7c8.29-19.12 18.91-30.6 31.45-34.42 4.26-1.21 8.72-1.54 13.1-.95 4.39.58 8.61 2.06 12.4 4.35.22.14.4.34.54.56s.23.47.27.73c.04.25.03.52-.04.77-.06.26-.18.49-.34.7-.13.23-.31.44-.52.6-.22.16-.46.27-.72.33s-.53.07-.8.02c-.26-.06-.51-.16-.73-.31-6.68-3.67-14.5-4.66-21.88-2.77-11.27 3.4-21.04 14.24-28.91 32.09-.13.4-.4.73-.74.96-.35.23-.76.34-1.17.32z" fill="#ff9800"/><path d="m1357.67 1706.5 2.55-4.67c1.06-2.13 27.2-50.37 48.45-52.92 2.3-.31 4.64-.02 6.8.84 2.16.85 4.06 2.25 5.53 4.05 1.64 1.55 2.84 3.51 3.47 5.67.63 2.17.68 4.46.14 6.65-5.31 19.98-59.72 38.04-62.05 38.68zm52.7-53.55h-1.27c-15.3 1.7-35.28 33.57-42.51 45.9 17.64-6.37 50.37-20.83 53.77-34 .38-1.5.36-3.07-.05-4.56-.4-1.49-1.19-2.85-2.29-3.94-.97-1.07-2.15-1.92-3.47-2.51-1.31-.58-2.74-.89-4.18-.89z" fill="#ff9800"/><path d="m1322.18 1710.96c-8.71 0-16.58-1.27-20.83-5.1-1.42-1.33-2.48-3.01-3.08-4.87-.59-1.86-.7-3.84-.32-5.75.25-2.01 1-3.92 2.19-5.56s2.78-2.94 4.61-3.79c16.15-7.87 56.53 14.45 58.23 15.3l4.68 2.55-5.1 1.27c-3.19.85-23.59 5.95-40.38 5.95zm-19.98-15.08c-.27 1.2-.23 2.45.1 3.64.33 1.18.96 2.27 1.81 3.16 8.29 7.43 36.56 2.97 51.86-.43-13.6-6.8-39.1-17.64-49.3-12.54-1.25.51-2.33 1.36-3.11 2.45-.79 1.09-1.26 2.37-1.36 3.72z" fill="#ff9800"/><path d="m1002.13 582.292s-107.321 221.867-134.948-42.928c-3.613-35.915-11.688-62.267-15.088-114.121l-69.706 38.891s15.089 610.136 298.582 190.839c-16.62-7.675-32.31-17.229-46.75-28.477-14.66-11.476-29.33-23.802-32.09-44.204z" fill="#f4bb8e"/><path d="m1659.65 494.523c2.98-2.125-1.27-45.053 38.89-47.816 44.63-3.187 97.97-21.889 132.19-58.229 34.21-36.34 75.02-62.055 57.8-78.418-12.32-11.689-31.66 2.975-41.65 12.113-4.22 3.954-9.74 6.223-15.51 6.375-10.84.638-24.02 2.126-41.44 16.152-6.54 5.16-13.68 9.513-21.26 12.963-8.71 3.825-19.76 7.438-27.41 5.951 0 0 1.91-30.603-19.13-24.865s-43.78 19.977-78.2 19.127c-34.43-.85-53.77 18.701-49.94 53.979 0 0-8.72 75.018-5.1 67.155 0 0 70.13 15.726 70.76 15.513z" fill="#f4bb8e"/><path d="m1765.49 408.242c-.36-.003-.7-.103-1-.291-.3-.187-.55-.455-.7-.772-.15-.249-.25-.525-.29-.813-.03-.287-.01-.579.07-.858s.21-.538.4-.762c.18-.225.41-.409.67-.542 20.82-11.051 74.59-43.991 72.68-62.055.03-.435-.04-.872-.22-1.275.15-1.006.05-2.033-.28-2.995-.33-.961-.89-1.828-1.63-2.53-1.7-1.275-5.95-2.55-16.36-.425-10.42 2.125-22.53 10.201-35.28 17.851-12.75 7.651-28.69 17.852-39.53 19.127-1.91.425-21.04 4.675-57.8-.213-36.77-4.888-52.71 20.189-53.34 21.252-.15.24-.35.447-.58.609-.24.163-.5.277-.78.337-.27.059-.56.062-.84.009s-.54-.161-.78-.318c-.44-.338-.75-.824-.87-1.369-.11-.546-.03-1.116.23-1.606.22-.212 18.49-28.477 57.38-23.164s56.32.425 56.53.425h.21c9.99-1.063 24.23-9.988 38.05-18.489 13.81-8.501 26.35-16.151 36.55-18.276 10.2-2.126 16.15-1.701 19.76 1.062 1.22 1.044 2.18 2.354 2.8 3.828.63 1.474.91 3.073.81 4.673 0 .425.22.85.22 1.275 2.55 24.227-67.16 62.055-75.02 66.305z" fill="#46003d" opacity=".3"/><path d="m1101.59 332.374h-.43c-4.34 0-7.86 3.52-7.86 7.863v.489c0 4.342 3.52 7.863 7.86 7.863h.43c4.34 0 7.86-3.521 7.86-7.863v-.489c0-4.343-3.52-7.863-7.86-7.863z" fill="#7f4bbc"/><path d="m1016.79 1869.71h-408.665c-15.174-.03-29.848-5.42-41.435-15.22-11.586-9.8-19.34-23.37-21.894-38.33l-41.866-249.49h614.6l-37.19 248.21c-2.25 15.25-9.9 29.18-21.57 39.24-11.67 10.07-26.57 15.6-41.98 15.59z" fill="#e90001"/><path d="m1116.04 1473.16h-617.36c-21.127 0-38.253 17.12-38.253 38.25v16.96c0 21.13 17.126 38.25 38.253 38.25h617.36c21.12 0 38.25-17.12 38.25-38.25v-16.96c0-21.13-17.13-38.25-38.25-38.25z" fill="#fd6067"/><path d="m674.855 1600.46h-1.062c-8.333 0-15.089 6.75-15.089 15.08v162.54c0 8.33 6.756 15.09 15.089 15.09h1.062c8.334 0 15.089-6.76 15.089-15.09v-162.54c0-8.33-6.755-15.08-15.089-15.08z" fill="#940113"/><path d="m744.136 1600.46h-1.063c-8.333 0-15.089 6.75-15.089 15.08v162.54c0 8.33 6.756 15.09 15.089 15.09h1.063c8.333 0 15.088-6.76 15.088-15.09v-162.54c0-8.33-6.755-15.08-15.088-15.08z" fill="#940113"/><path d="m809.378 1598.97h-1.063c-8.333 0-15.088 6.75-15.088 15.09v162.53c0 8.33 6.755 15.09 15.088 15.09h1.063c8.333 0 15.088-6.76 15.088-15.09v-162.53c0-8.34-6.755-15.09-15.088-15.09z" fill="#940113"/><path d="m878.658 1598.97h-1.063c-8.333 0-15.088 6.75-15.088 15.09v162.53c0 8.33 6.755 15.09 15.088 15.09h1.063c8.333 0 15.089-6.76 15.089-15.09v-162.53c0-8.34-6.756-15.09-15.089-15.09z" fill="#940113"/><path d="m942.413 1600.46h-1.063c-8.333 0-15.088 6.75-15.088 15.08v162.54c0 8.33 6.755 15.09 15.088 15.09h1.063c8.333 0 15.088-6.76 15.088-15.09v-162.54c0-8.33-6.755-15.08-15.088-15.08z" fill="#940113"/><path d="m545.433 1761.54 33.79 25.72c1 .76 2.154 1.3 3.383 1.58s2.504.29 3.736.02c1.232-.26 2.393-.78 3.402-1.54 1.009-.75 1.842-1.72 2.443-2.83l36.977-65.66c.364-.79.971-1.44 1.73-1.85.76-.41 1.632-.57 2.489-.45s1.653.51 2.271 1.11c.618.61 1.025 1.4 1.161 2.25l19.126 81.61c.755 3.41 2.628 6.48 5.323 8.71 2.694 2.23 6.056 3.5 9.554 3.61l119.221 4.46c7.013.43 14.026 3.83 8.288 8.08s-49.304 10.2-39.103 24.01c10.201 13.82-53.979 19.34-53.979 19.34h-89.044c-10.371.8-20.793-.58-30.602-4.03-14.239-5.32-29.54-17.43-34.64-30.82-7.438-19.98-10.626-48.45-14.239-68-.167-1.08-.011-2.19.449-3.18s1.202-1.82 2.135-2.39c.932-.57 2.012-.85 3.103-.8 1.09.04 2.144.41 3.026 1.05z" fill="#940113"/><path d="m468.077 1926.88c-1.441-.66-2.68-1.69-3.59-2.99s-1.458-2.81-1.588-4.39.163-3.17.849-4.6 1.74-2.65 3.054-3.53c6.439-4.44 13.268-8.28 20.402-11.48 11.051-4.46 85.644 0 86.706 9.99 1.063 9.99-55.254 23.16-74.805 24.44-10.414.42-22.102-3.61-31.028-7.44z" fill="#e90001"/><path d="m611.526 1887.14c17.851-2.98 41.653-7.44 52.704-9.56 3.978-.67 8.058-.38 11.9.85l53.554 18.06c1.425.48 2.69 1.35 3.661 2.5s1.611 2.54 1.852 4.02c.24 1.49.071 3.01-.488 4.41-.559 1.39-1.488 2.61-2.687 3.52l-5.738 4.25c-.495.4-.884.92-1.129 1.5-.246.59-.342 1.23-.278 1.86.063.63.283 1.24.64 1.77s.84.95 1.405 1.25l11.263 5.73c.673.45 1.188 1.09 1.472 1.85.285.75.324 1.58.112 2.35-.213.78-.665 1.47-1.293 1.98-.627.5-1.399.8-2.204.84-26.777-1.7-76.293-6.17-82.668-17.85-6.376-11.69-25.927-17-42.503-21.47-.881-.25-1.65-.79-2.181-1.54-.532-.74-.794-1.64-.745-2.56.05-.91.408-1.78 1.017-2.47.609-.68 1.431-1.14 2.334-1.29z" fill="#e90001"/><path d="m363.945 1853.99c24.014-3.83 62.054-7.65 76.08-8.93 3.473-.39 6.985-.25 10.414.43l47.178 9.56c1.293.26 2.473.91 3.379 1.87s1.492 2.17 1.679 3.48c.186 1.3-.036 2.63-.638 3.81-.601 1.17-1.551 2.13-2.72 2.74l-14.238 7.44c-5.428 2.81-11.555 3.99-17.639 3.4l-93.932-10.2-10.413-3.4c-5.313-1.49-4.676-9.14.85-10.2z" fill="#e90001"/><path d="m1149.19 1005.2c-13.6 0-26.14-9.139-37.61-17.64-4.47-3.4-8.93-6.375-12.97-8.926-19.34-11.475-35.49 13.814-36.13 14.876-.13.234-.3.437-.52.598-.21.16-.46.274-.72.334s-.53.065-.79.014c-.26-.05-.51-.155-.73-.308-.26-.133-.48-.317-.67-.542-.18-.224-.32-.483-.4-.762s-.1-.571-.06-.858c.04-.288.13-.564.28-.813.21-.213 19.13-29.752 41.87-16.151 4.25 2.55 8.71 5.737 13.39 9.138 17.63 12.963 35.91 26.35 56.74 6.8 25.29-23.589 48.66-41.44 76.93-19.126 5.26 4.418 10.3 9.1 15.09 14.026 13.81 14.24 20.19 20.83 44.62-2.338 35.07-33.365 41.23-27.627 75.24 3.825.37.394.6.907.64 1.45s-.12 1.083-.43 1.526c-.43.393-.98.628-1.56.667s-1.15-.122-1.63-.455c-34.43-31.877-37.19-34.427-69.49-3.825-27.2 25.93-36.56 16.58-50.58 2.125-4.49-4.946-9.4-9.497-14.66-13.601-23.38-18.489-42.3-8.076-71.2 18.914-8.71 8.072-16.79 11.052-24.65 11.052z" fill="#4144ad"/><path d="m1148.55 930.818c-13.17 0-25.07-9.35-35.7-17.426-3.85-3.216-7.9-6.196-12.11-8.926-1.87-1.376-4.03-2.304-6.32-2.709-2.28-.406-4.63-.278-6.86.372-10.2 2.975-16.79 16.788-16.79 17.001-.23.501-.65.893-1.16 1.091-.52.199-1.09.188-1.6-.028-.27-.089-.52-.237-.72-.432-.21-.195-.36-.434-.47-.698-.1-.264-.14-.548-.12-.831.02-.282.11-.556.25-.802.21-.638 7.22-15.726 19.34-19.552 2.81-.755 5.75-.88 8.62-.366 2.86.514 5.58 1.655 7.95 3.342 4.41 2.812 8.67 5.863 12.75 9.138 16.58 12.963 33.79 26.352 53.34 6.8 24.02-23.589 45.91-41.44 72.9-19.126 5.05 4.352 9.81 9.037 14.24 14.026 6.8 7.438 11.68 12.751 17.85 12.751h.21c5.95 0 13.6-4.676 23.8-15.089 32.3-32.515 43.57-28.264 77.14 4.676.41.432.63 1.002.63 1.593 0 .592-.22 1.162-.63 1.594-.39.39-.93.608-1.48.608-.56 0-1.09-.218-1.49-.608-32.09-31.665-41.02-35.065-71.19-4.675-11.27 11.263-19.77 16.364-26.99 16.151-7.23-.212-13.82-6.163-21.04-14.026-4.28-4.919-8.9-9.535-13.82-13.813-22.1-18.277-39.95-7.864-67.15 18.913-8.08 8.076-15.73 11.051-23.38 11.051z" fill="#4144ad"/><path d="m1163.85 861.113c-11.68 0-22.31-9.563-31.66-17.639-3.32-3.231-6.87-6.214-10.63-8.925-1.59-1.202-3.41-2.068-5.34-2.543-1.94-.475-3.95-.55-5.92-.22-11.69 2.338-21.89 17.639-22.1 17.639-.13.233-.31.436-.52.597-.22.16-.46.274-.72.334s-.53.065-.79.014c-.27-.05-.51-.155-.73-.308-.24-.151-.45-.348-.61-.581-.17-.232-.28-.495-.34-.772s-.06-.564-.01-.842c.05-.279.16-.544.32-.78.42-.637 11.26-16.789 24.86-19.339 2.47-.529 5.01-.518 7.47.032s4.77 1.627 6.77 3.156c3.61 2.763 7.44 5.95 11.26 9.351 15.09 13.388 29.33 25.926 46.33 6.8s28.27-28.902 41.66-29.54c7.65-.425 15.3 2.976 22.95 10.414 4.59 4.29 8.79 8.984 12.54 14.026 5.73 7.013 10.2 12.538 15.51 12.751h.21c5.1 0 11.69-4.888 20.62-15.089 13.81-15.726 22.52-22.102 31.45-22.102 11.26 0 21.89 10.839 36.76 27.415.37.424.55.974.51 1.531s-.3 1.075-.72 1.444c-.19.21-.43.373-.7.479-.26.105-.55.149-.84.128-.28-.02-.56-.104-.81-.246s-.46-.338-.62-.573c-16.15-17.852-24.87-25.927-33.58-25.927-7.44 0-15.51 6.163-28.27 20.614-12.75 14.451-17.21 16.576-23.8 16.576h-.21c-7.23-.213-12.33-6.376-18.7-14.451-3.86-4.752-7.98-9.293-12.33-13.601-6.8-6.376-13.17-9.351-19.76-9.138-11.9.425-24.02 11.688-38.68 28.052-7.22 8.075-14.03 11.263-20.83 11.263z" fill="#4144ad"/><path d="m1178.09 791.195c-9.77 0-18.06-8.925-26.35-17.851-2.81-3.133-5.79-6.112-8.92-8.926-1.11-1.007-2.43-1.758-3.86-2.199-1.44-.441-2.95-.561-4.43-.351-10.2 1.7-19.77 17.214-19.77 17.427-.15.24-.35.447-.58.609-.23.163-.49.277-.77.336-.28.06-.56.063-.84.01s-.55-.161-.78-.318c-.24-.13-.44-.308-.6-.521-.16-.214-.27-.459-.33-.719s-.07-.53-.02-.792c.05-.263.16-.511.31-.731.43-.85 10.63-17.638 22.74-19.551 2.13-.292 4.29-.121 6.35.503 2.05.624 3.94 1.684 5.55 3.11 2.98 2.762 5.95 5.95 9.14 9.35 7.65 8.289 15.72 17.002 24.01 16.364 4.47-.212 8.93-3.4 13.6-9.563 12.97-18.064 23.59-29.115 34.64-29.752 6.59-.213 12.97 3.187 19.34 10.625 3.71 4.494 7.19 9.175 10.42 14.026 4.67 7.014 8.28 12.539 12.32 12.539h.21c3.83 0 9.36-4.888 16.58-14.876 11.26-15.726 19.13-22.102 27.2-22.314 8.08-.213 18.49 9.35 32.09 27.627.34.451.49 1.017.41 1.575s-.38 1.062-.83 1.4-1.02.483-1.58.404c-.56-.08-1.06-.378-1.4-.829-12.54-16.789-20.61-25.927-28.47-25.927h-.22c-6.37.212-13.39 6.375-23.8 20.614s-14.45 16.576-20.19 16.576-10.62-6.375-15.94-14.451c-3.01-4.758-6.35-9.303-9.98-13.601-5.53-6.375-10.63-9.351-15.94-9.138-9.35.425-19.55 11.476-31.46 28.052-5.31 7.226-10.83 10.838-16.78 11.263z" fill="#4144ad"/><path d="m1192.97 721.49c-8.08 0-15.09-9.138-21.68-18.064-2.55-3.4-4.89-6.375-7.22-8.925-.65-.879-1.53-1.562-2.54-1.975-1.02-.412-2.12-.538-3.2-.363-7.01.85-14.88 13.601-17.43 18.489-.3.431-.73.749-1.23.903s-1.04.136-1.53-.053c-.25-.111-.48-.274-.66-.479s-.32-.446-.4-.708-.1-.539-.06-.81c.03-.272.12-.533.27-.766.85-2.125 9.99-19.339 20.4-20.826 1.77-.293 3.59-.113 5.27.522 1.68.634 3.16 1.7 4.29 3.09l7.44 9.351c5.95 7.863 12.54 16.576 18.7 16.364 6.17-.213 7.23-3.4 10.63-9.563 10.84-18.064 19.34-29.54 28.69-29.753 5.52-.212 10.63 3.188 15.94 10.626 3.01 4.522 5.78 9.204 8.29 14.026 3.61 6.588 6.8 12.326 9.77 12.326 2.98 0 7.23-4.888 12.97-14.451 9.35-16.151 15.51-22.527 22.1-22.527h.21c7.65 0 14.45 8.926 25.71 27.628.27.49.35 1.059.24 1.605-.12.546-.43 1.032-.87 1.37-.25.148-.53.244-.82.281-.28.038-.58.016-.85-.064-.28-.079-.54-.215-.77-.399-.22-.183-.41-.411-.54-.668-9.99-16.577-16.36-25.502-22.1-25.502h-.21c-4.68 0-10.2 6.163-18.49 20.401-8.29 14.239-11.9 16.789-16.58 16.577-4.67-.213-9.14-6.376-13.39-14.451-2.42-4.689-5.12-9.231-8.07-13.601-4.47-6.163-8.5-9.139-12.33-8.926-7.44.212-15.51 11.263-25.07 27.627-4.47 7.438-9.14 11.263-14.24 11.688z" fill="#4144ad"/><path d="m1149.4 647.96c-13.39 0-25.71-9.351-36.97-17.639-4.28-3.372-8.75-6.494-13.39-9.351-19.34-11.476-41.66 18.702-41.87 19.127-.37.409-.86.676-1.41.754-.54.077-1.1-.039-1.56-.329-.25-.145-.47-.345-.63-.585s-.27-.513-.31-.8c-.04-.286-.01-.578.07-.854.09-.275.24-.527.44-.737.85-1.487 24.87-33.79 47.39-20.189 4.78 2.925 9.4 6.118 13.82 9.564 17.21 12.963 35.27 26.352 55.89 6.8 25.29-23.589 48.66-41.44 76.93-19.126 5.26 4.418 10.3 9.1 15.09 14.026 13.81 14.238 20.19 20.826 44.62-2.338 35.07-33.365 47.4-25.289 81.19 5.951.3.409.45.915.42 1.425-.04.511-.26.991-.62 1.352-.36.362-.84.581-1.35.617-.51.037-1.02-.112-1.43-.419-33.36-30.815-42.5-36.978-75.44-5.738-27.2 25.927-36.56 16.576-50.58 2.125-4.49-4.947-9.4-9.497-14.66-13.601-23.38-18.489-42.3-8.076-71.2 18.914-8.5 7.863-16.57 11.051-24.44 11.051z" fill="#4144ad"/><path d="m1292.85 513.862c-8.71 0-15.09-6.375-22.95-14.026-4.64-4.944-9.69-9.493-15.09-13.601-2.82-2.087-5.8-3.935-8.92-5.525h-.43c-.46-.269-.81-.702-.97-1.215-.15-.512-.11-1.065.12-1.548.13-.257.32-.485.54-.668.23-.184.49-.32.76-.399.28-.08.57-.102.86-.064.29.037.57.133.82.281h.42c3.34 1.643 6.54 3.563 9.56 5.738 5.48 4.247 10.6 8.938 15.3 14.026 14.03 13.813 21.04 20.827 46.12-2.338 36.13-33.577 48.88-25.502 83.09 5.313.38.394.61.906.65 1.45.04.543-.12 1.082-.43 1.525-.37.419-.89.677-1.45.716-.55.04-1.1-.141-1.53-.503-34.21-30.815-43.56-36.765-77.57-5.313-12.75 11.688-21.67 16.151-28.9 16.151z" fill="#4144ad"/><path d="m1131.76 581.655c-17.21 0-33.15-8.926-47.81-17.427-5.74-3.187-11.26-6.375-16.79-8.925-25.71-11.901-54.83 15.513-55.04 15.726-.4.389-.93.607-1.49.607s-1.09-.218-1.49-.607c-.4-.433-.62-1.002-.62-1.594 0-.591.22-1.161.62-1.594 1.28-1.062 31.46-29.539 59.72-16.363 5.89 2.756 11.63 5.806 17.21 9.138 22.96 13.176 46.76 26.777 74.17 6.8 32.3-23.377 61.84-41.015 97.55-19.126 6.82 4.128 13.29 8.819 19.34 14.026 17.85 14.238 26.77 21.251 58.65-2.338 43.14-31.877 56.95-27.839 102.43 4.888.25.145.47.345.63.585s.27.513.31.799c.04.287.01.579-.08.854-.08.276-.23.528-.43.737-.37.41-.87.677-1.41.754-.55.078-1.1-.039-1.57-.329-44.63-32.09-55.89-35.49-97.33-4.888-34.43 25.502-45.48 16.789-63.76 2.126-6.03-4.896-12.35-9.437-18.91-13.601-30.6-18.702-55.25-8.289-92.87 18.913-8.89 6.882-19.78 10.686-31.03 10.839z" fill="#4144ad"/><path d="m1136.65 516.2c-13.39 0-25.71-9.138-37.19-17.639-4.46-3.4-8.71-6.588-12.75-9.138-19.34-11.476-41.86 15.726-42.08 16.151-.38.347-.88.542-1.4.547s-1.02-.179-1.41-.519-.65-.811-.72-1.325.06-1.035.35-1.466c.85-1.275 25.07-30.389 47.39-17.001 4.25 2.763 8.71 5.951 13.17 9.351 17.43 12.963 35.49 26.352 56.32 6.8 8.21-7.913 17.1-15.095 26.56-21.464.48-.31 1.06-.417 1.62-.297.56.119 1.05.456 1.36.935s.42 1.061.3 1.619-.46 1.046-.94 1.356c-9.29 6.097-17.97 13.071-25.93 20.827-8.71 8.075-16.78 11.263-24.65 11.263z" fill="#4144ad"/><path d="m1093.94 1068.95 107.53-1.06v-18.91s-30.18 2.97-58.87 7.01c-13.81 1.91-27.41 4.46-36.76 6.16l-11.9 2.13z" fill="#e49d65"/><path d="m1217.83 1067.68s91.81-3.4 107.75-3.19v-21.68s-15.51-1.06-36.55-.21c-28.69 1.06-65.25 4.04-71.2 4.89z" fill="#e49d65"/><path d="m777.288 466.684s51.216 1.912 77.143-22.102l4.676 40.803s-14.877 28.052-74.381 21.677z" fill="#7f4bbc"/><path d="m801.727 490.485c-6.486.054-12.962-.516-19.339-1.7-.526-.103-.993-.401-1.308-.835-.316-.433-.455-.97-.392-1.502.149-.543.489-1.014.958-1.327.468-.312 1.034-.445 1.592-.373.425 0 46.116 9.138 69.918-18.064.168-.25.387-.462.643-.621.255-.158.542-.261.84-.301.299-.04.602-.016.891.07.288.087.555.233.782.43.228.198.411.441.537.714.127.273.194.57.197.871s-.059.6-.179.875c-.121.276-.3.523-.523.724-15.301 17.427-38.253 21.039-54.617 21.039z" fill="#ff9800"/><path d="m1160.14 234.892c-.52-.039-1-.248-1.39-.594-.38-.346-.64-.81-.73-1.319-.07-.532.07-1.069.39-1.502.31-.434.78-.732 1.31-.836 48.87-7.65 61.2-35.277 61.41-35.702.28-.415.7-.718 1.18-.856s.99-.103 1.45.1.83.561 1.05 1.01c.21.449.27.961.15 1.446-.43 1.275-13.39 30.177-64.61 38.253z" fill="#f4bb8e" opacity=".2"/><path d="m1108.18 244.328c-.5.01-.99-.154-1.38-.465-.38-.31-.65-.747-.75-1.235-.06-.279-.07-.568-.01-.85.05-.281.16-.549.32-.787s.36-.442.6-.599c.24-.156.51-.263.79-.314 42.93-7.65 71.19-41.015 71.62-41.228.34-.451.84-.749 1.4-.829.56-.079 1.12.066 1.57.404.44.405.7.96.74 1.552s-.15 1.177-.52 1.636c-1.28 1.275-29.54 34.64-73.96 42.715z" fill="#f4bb8e" opacity=".2"/><path d="m1241.42 121.771c-.28.034-.58.002-.85-.092-.27-.095-.52-.251-.73-.455-.2-.205-.36-.453-.45-.727-.1-.273-.13-.564-.09-.852-2.13-31.0269-30.82-34.0021-31.88-34.2147-.42-.1606-.78-.45-1.02-.8266-.25-.3766-.37-.8211-.34-1.2695.02-.4485.19-.878.47-1.2268s.67-.5991 1.1-.7149c.43 0 33.58 3.4003 35.92 38.0405 0 .585-.22 1.149-.61 1.582s-.94.702-1.52.756z" fill="#f4bb8e" opacity=".2"/><path d="m1392.31 1918.59c-29.33 0-60.57-7.22-60.57-20.61s31.24-20.4 60.57-20.4 60.78 7.22 60.78 20.4c0 13.17-31.24 20.61-60.78 20.61zm0-36.76c-33.15 0-56.32 8.5-56.32 16.15s23.17 16.36 56.32 16.36 56.53-8.5 56.53-16.36c0-7.87-23.17-16.15-56.53-16.15z" fill="#83c3e5"/><path d="m1698.12 1808.72c-12.75 0-36.77-2.12-36.77-10.62 0-8.51 24.02-10.84 36.77-10.84s36.76 2.33 36.76 10.84c0 8.5-24.01 10.62-36.76 10.62zm0-17.21c-21.47 0-32.52 4.46-32.52 6.59 0 2.12 11.05 6.37 32.52 6.37 21.46 0 32.51-4.46 32.51-6.37 0-1.92-11.05-6.59-32.51-6.59z" fill="#83c3e5"/><path d="m1010.84 604.181s5.53 7.864 19.34 19.127c0 0 5.53 4.675 12.33 9.351 6.8 4.675 15.3 10.2 18.27 11.9 2.98 1.701 17.43 9.564 20.19 10.414l-7.22 10.626s-58.66-40.379-62.91-61.418z" fill="#e49d65"/><path d="m1183.83 418.868s44.2 3.825 56.32 0c0 0-.85 11.688.85 16.151 0 0-43.78-.213-56.96-9.776z" fill="#e49d65"/><ellipse cx="1155.5" cy="345" fill="#fd6067" opacity=".2" rx="19.5" ry="19"/><ellipse cx="1294" cy="342" fill="#fd6067" opacity=".2" rx="15" ry="19"/></svg>